<?xml version="1.0" encoding="utf-8"?>
<!-- Generator: Adobe Illustrator 17.0.0, SVG Export Plug-In . SVG Version: 6.00 Build 0)  -->
<!DOCTYPE svg PUBLIC "-//W3C//DTD SVG 1.1//EN" "http://www.w3.org/Graphics/SVG/1.1/DTD/svg11.dtd">
<svg version="1.1" id="Layer_1" xmlns="http://www.w3.org/2000/svg" xmlns:xlink="http://www.w3.org/1999/xlink" x="0px" y="0px"
	 width="100px" height="100px" viewBox="0 0 100 100" enable-background="new 0 0 100 100" xml:space="preserve">
<g>
	<path fill="#FFFFFF" d="M48.804,17.322c-21.812,0-39.521,17.696-39.521,39.521c0,11.36,4.824,21.568,12.492,28.779l-8.401,8.407
		c-1.28,1.274-1.28,3.371,0,4.658c1.28,1.273,3.377,1.273,4.657,0l8.922-8.929c6.259,4.168,13.772,6.606,21.851,6.606
		c8.761,0,16.828-2.888,23.382-7.706l0.47,0.714l9.314,9.315c1.28,1.273,3.377,1.273,4.658,0c1.28-1.286,1.28-3.384,0-4.658
		l-9.315-9.314l-0.309-0.206c6.999-7.127,11.322-16.891,11.322-27.666C88.325,35.018,70.635,17.322,48.804,17.322z M48.804,83.191
		c-14.531,0-26.348-11.816-26.348-26.348c0-14.531,11.816-26.348,26.348-26.348c14.531,0,26.348,11.817,26.348,26.348
		C75.151,71.375,63.334,83.191,48.804,83.191z"/>
	<path fill="#FFFFFF" d="M50,53.885v-4.998c0-1.827-1.473-3.293-3.293-3.293c-1.82,0-3.293,1.467-3.293,3.293v6.587l0.039,0.174
		l0.128,0.669l0.18,0.572l0.334,0.495l0.437,0.521l0.116,0.141l10.71,8.568c0.611,0.483,1.331,0.721,2.058,0.721
		c0.965,0,1.923-0.424,2.573-1.235c1.132-1.428,0.907-3.499-0.514-4.631L50,53.885z"/>
	<path fill="#FFFFFF" d="M93.407,6.953C85.707-0.753,73.8-1.705,65.052,4.09l31.216,31.217
		C102.065,26.553,101.106,14.666,93.407,6.953z"/>
	<path fill="#FFFFFF" d="M6.594,6.953c-7.7,7.713-8.659,19.6-2.863,28.355L34.948,4.09C26.2-1.705,14.293-0.753,6.594,6.953z"/>
</g>
</svg>
