<?xml version="1.0" encoding="UTF-8" standalone="no"?>
<svg width="28px" height="27px" viewBox="0 0 28 27" version="1.1" xmlns="http://www.w3.org/2000/svg" xmlns:xlink="http://www.w3.org/1999/xlink" xmlns:sketch="http://www.bohemiancoding.com/sketch/ns">
    <!-- Generator: Sketch 3.3.3 (12081) - http://www.bohemiancoding.com/sketch -->
    <title>Imported Layers</title>
    <desc>Created with Sketch.</desc>
    <defs></defs>
    <g id="Index" stroke="none" stroke-width="1" fill="none" fill-rule="evenodd" sketch:type="MSPage">
        <g id="Index---1024" sketch:type="MSArtboardGroup" transform="translate(-677.000000, -191.000000)" stroke="#008AE1" fill="#FF6868">
            <g id="logo-big" sketch:type="MSLayerGroup" transform="translate(267.000000, 163.000000)">
                <path d="M431.453067,29.0616 C431.027467,29.0205333 430.629867,29 430.2584,29 C427.268,29 425.836267,30.2917333 424.195467,32.248 C422.554667,30.2917333 421.121067,29 418.136267,29 C417.7592,29 417.3616,29.0205333 416.939733,29.0616 C414.350667,29.3136 411.362133,31.6824 411,36.2184 L411,37.7285333 C411.339733,42.0704 414.6176,47.4258667 424.195467,54.1458667 C433.7752,47.4258667 437.053067,42.0704 437.3928,37.7285333 L437.3928,36.2184 C437.0288,31.6824 434.0384,29.3136 431.453067,29.0616" id="Imported-Layers" sketch:type="MSShapeGroup"></path>
            </g>
        </g>
    </g>
</svg>