<?xml version="1.0" encoding="utf-8"?>
<!-- Generator: Adobe Illustrator 17.0.0, SVG Export Plug-In . SVG Version: 6.00 Build 0)  -->
<!DOCTYPE svg PUBLIC "-//W3C//DTD SVG 1.1//EN" "http://www.w3.org/Graphics/SVG/1.1/DTD/svg11.dtd">
<svg version="1.1" id="Layer_1" xmlns="http://www.w3.org/2000/svg" xmlns:xlink="http://www.w3.org/1999/xlink" x="0px" y="0px"
	 width="507.471px" height="100px" viewBox="0 0 507.471 100" enable-background="new 0 0 507.471 100" xml:space="preserve">
<g>
	<path fill="#FFFFFF" d="M128.906,72.105l-0.273-0.227l-0.353-0.036c-1.939-0.194-3.88,0.195-5.767,1.154
		c-1.727,0.878-3.491,1.864-5.245,2.929c-1.696,1.028-3.5,1.943-5.36,2.721c-1.74,0.727-3.691,0.981-5.671,0.78
		c-0.948-0.106-1.939-0.334-2.941-0.677c-0.952-0.327-1.828-0.822-2.604-1.473c-0.786-0.658-1.47-1.472-2.033-2.419
		c-0.382-0.642-0.67-1.392-0.861-2.241c3.296-0.451,6.647-1.258,9.979-2.404c3.751-1.289,7.244-2.984,10.381-5.037
		c3.165-2.071,5.895-4.547,8.116-7.36c2.259-2.861,3.742-6.058,4.408-9.51c0.483-2.595,0.527-5.039,0.131-7.265
		c-0.398-2.227-1.114-4.215-2.129-5.907c-1.015-1.69-2.267-3.129-3.724-4.278c-1.46-1.148-3.053-1.983-4.725-2.479
		c-4.229-1.309-8.464-1.655-12.579-1.03c-4.098,0.623-7.965,2.023-11.497,4.161c-3.516,2.128-6.675,4.896-9.389,8.23
		c-2.711,3.33-4.848,7.11-6.351,11.235c-1.503,4.124-2.294,8.557-2.353,13.176c-0.058,4.647,0.868,9.391,2.754,14.102l0.078,0.196
		l0.143,0.156c0.373,0.407,0.775,0.845,1.191,1.297l-0.86-0.124c-0.861-0.124-1.535-0.184-2.06-0.184h-1.293
		c-0.344,0-0.714-0.025-1.095-0.076c-0.346-0.046-0.8-0.137-1.351-0.27c-2.494-1.717-5.078-3.462-7.684-5.191
		c-2.603-1.726-5.178-3.552-7.651-5.429c-2.46-1.866-4.836-3.87-7.06-5.954c-1.864-1.745-3.577-3.673-5.108-5.748
		c2.432-1.123,4.972-2.383,7.572-3.755c3.075-1.624,6.044-3.432,8.824-5.373c2.809-1.96,5.378-4.173,7.635-6.576
		c2.299-2.448,4.073-5.208,5.28-8.226c0.37-0.986,0.652-2.077,0.836-3.243c0.181-1.147,0.273-2.324,0.273-3.497
		c0-1.178-0.093-2.316-0.275-3.384c-0.189-1.1-0.48-2.082-0.86-2.904c-1.524-3.412-4.033-6.249-7.458-8.431
		c-3.333-2.124-7.231-3.753-11.586-4.843c-4.318-1.079-9-1.67-13.917-1.758c-4.903-0.09-9.757,0.282-14.435,1.094
		c-4.679,0.814-9.133,2.054-13.24,3.684c-4.161,1.653-7.628,3.728-10.304,6.165l-0.402,0.365l0.024,0.542
		c0.054,1.219,0.055,2.31,0.001,3.241c-0.059,0.988-0.102,1.917-0.131,2.786c-0.03,0.875-0.044,1.75-0.044,2.625
		c0,0.908,0.06,1.935,0.179,3.052l0.075,0.304c0.278,0.702,0.906,1.141,1.716,1.202c0.571,0.048,1.269,0.022,1.855,0.068
		c-0.445,4.644-0.928,9.524-1.45,14.642L5.007,76.367c-0.517,5.088-0.977,9.815-1.38,14.185l-0.074,0.8l0.724,0.35
		c1.782,0.859,3.637,1.388,5.517,1.574c1.882,0.186,3.669,0.059,5.321-0.378c1.666-0.441,3.152-1.162,4.42-2.143
		c1.327-1.03,2.27-2.36,2.801-3.952l0.133-0.398l-0.153-0.391c-0.467-1.195-0.731-2.646-0.783-4.311
		c-0.056-1.752,0.015-3.568,0.21-5.398c0.196-1.854,0.48-3.702,0.845-5.493c0.274-1.348,0.544-2.607,0.808-3.758
		c1.102,0.303,2.19,0.766,3.245,1.383c1.473,0.862,2.964,1.89,4.432,3.053c1.506,1.194,3.057,2.487,4.61,3.842
		c1.582,1.381,3.268,2.759,5.005,4.091c1.545,1.201,3.174,2.501,4.89,3.903c1.72,1.405,3.486,2.792,5.248,4.122
		c1.78,1.342,3.577,2.528,5.339,3.528c1.818,1.03,3.578,1.738,5.261,2.111c1.002,0.195,1.999,0.294,2.961,0.294
		c1.178,0,2.34-0.148,3.456-0.439c1.978-0.518,3.86-1.351,5.593-2.475c1.712-1.112,3.308-2.464,4.745-4.02
		c1.405-1.524,2.738-3.154,3.963-4.845l0.728-1.005c0.825,0.896,1.718,1.865,2.695,2.921c1.8,1.948,3.923,3.772,6.31,5.423
		c2.413,1.667,5.17,2.994,8.196,3.944c1.907,0.598,3.975,0.901,6.147,0.901c1.344,0,2.758-0.116,4.192-0.343
		c1.63-0.243,3.442-0.759,5.388-1.536c1.917-0.768,3.82-1.69,5.658-2.74c1.861-1.063,3.59-2.281,5.138-3.62
		c1.574-1.362,2.824-2.785,3.719-4.232c0.961-1.56,1.38-3.146,1.244-4.715C131.415,74.966,130.523,73.454,128.906,72.105z
		 M43.373,39.565c-3.902,1.98-7.576,3.63-10.917,4.905c-2.803,1.069-5.688,2.224-8.598,3.443c0.303-3.543,0.506-7.187,0.604-10.86
		c0.106-4.024,0.418-8.273,0.928-12.641c1.442-0.317,2.957-0.699,4.518-1.138c1.808-0.508,3.712-0.981,5.662-1.404
		c1.927-0.419,3.973-0.745,6.08-0.971c2.064-0.22,4.26-0.217,6.411-0.003c0.893,0.113,1.965,0.296,3.186,0.545
		c1.186,0.243,2.337,0.585,3.421,1.017c1.055,0.423,1.985,0.926,2.761,1.495c0.649,0.477,1.042,1.002,1.197,1.578
		c0.323,1.342,0.057,2.6-0.814,3.848c-0.991,1.419-2.33,2.783-3.979,4.054c-1.697,1.307-3.527,2.49-5.441,3.516
		C46.459,37.986,44.773,38.865,43.373,39.565z M96.094,55.724c0.195-1.258,0.435-2.488,0.714-3.657
		c0.284-1.192,0.597-2.397,0.937-3.618c0.316-1.13,0.679-2.395,1.092-3.792c0.877-0.638,1.981-1.31,3.288-2.001
		c1.429-0.755,2.935-1.33,4.474-1.709c1.483-0.365,2.941-0.445,4.336-0.238c1.146,0.17,2.121,0.698,2.971,1.611
		c-0.053,2.768-0.613,5.161-1.667,7.12c-1.118,2.076-2.613,3.801-4.442,5.126c-1.865,1.352-3.991,2.38-6.321,3.057
		c-1.92,0.558-3.859,0.911-5.783,1.053C95.82,57.598,95.955,56.609,96.094,55.724z"/>
	<path fill="#FFFFFF" d="M149.105,6.196l-0.287-1.148l-1.142,0.311c-0.556,0.152-1.26,0.255-2.094,0.306
		c-0.917,0.058-1.877,0.116-2.88,0.172c-1.056,0.061-2.112,0.199-3.141,0.41c-1.141,0.236-2.137,0.668-2.96,1.284l-0.339,0.255
		l-0.095,0.412c-1.501,6.52-2.467,13.179-2.871,19.791c-0.402,6.566-0.562,13.32-0.476,20.075
		c0.087,6.732,0.304,13.689,0.648,20.679c0.342,6.954,0.545,14.185,0.602,21.493l0.005,0.666l0.579,0.33
		c0.871,0.498,1.878,0.924,2.994,1.265c1.098,0.335,2.243,0.567,3.404,0.69c0.478,0.05,0.954,0.076,1.427,0.076
		c0.706,0,1.417-0.058,2.111-0.17c1.204-0.195,2.313-0.593,3.298-1.184l0.431-0.258l0.106-0.492
		c0.701-3.271,1.086-6.709,1.146-10.218c0.057-3.461,0.027-7.045-0.087-10.654c-0.115-3.621-0.245-7.342-0.387-11.165
		c-0.143-3.766-0.128-7.692,0.042-11.659c0.174-3.404,0.405-6.9,0.687-10.392c0.287-3.564,0.506-7.159,0.649-10.687
		c0.144-3.548,0.144-7.059,0-10.436C150.328,12.529,149.867,9.248,149.105,6.196z"/>
	<path fill="#FFFFFF" d="M202.057,72.105l-0.273-0.227l-0.353-0.036c-1.938-0.194-3.881,0.195-5.767,1.154
		c-1.727,0.878-3.491,1.864-5.245,2.929c-1.696,1.028-3.5,1.943-5.36,2.721c-1.74,0.727-3.691,0.981-5.671,0.78
		c-0.948-0.106-1.939-0.334-2.941-0.677c-0.952-0.327-1.828-0.822-2.604-1.473c-0.786-0.658-1.47-1.472-2.033-2.419
		c-0.382-0.642-0.67-1.392-0.861-2.241c3.296-0.451,6.647-1.258,9.979-2.404c3.751-1.289,7.244-2.984,10.381-5.037
		c3.165-2.071,5.895-4.547,8.116-7.36c2.259-2.861,3.742-6.058,4.408-9.51c0.483-2.595,0.527-5.039,0.131-7.265
		c-0.398-2.227-1.114-4.215-2.129-5.907c-1.015-1.69-2.267-3.129-3.724-4.278c-1.46-1.148-3.053-1.983-4.725-2.479
		c-4.229-1.309-8.465-1.655-12.579-1.03c-4.098,0.623-7.965,2.023-11.497,4.161c-3.516,2.128-6.675,4.896-9.389,8.23
		c-2.711,3.33-4.848,7.11-6.351,11.235c-1.503,4.124-2.294,8.557-2.353,13.176c-0.058,4.647,0.868,9.391,2.754,14.102l0.078,0.196
		l0.143,0.156c1.264,1.38,2.773,3.019,4.527,4.915c1.8,1.948,3.923,3.772,6.31,5.423c2.413,1.667,5.17,2.994,8.196,3.944
		c1.907,0.598,3.975,0.901,6.147,0.901c1.344,0,2.758-0.116,4.192-0.343c1.63-0.243,3.442-0.759,5.388-1.536
		c1.917-0.768,3.82-1.69,5.658-2.74c1.861-1.063,3.59-2.281,5.138-3.62c1.574-1.362,2.824-2.785,3.719-4.232
		c0.961-1.56,1.38-3.146,1.244-4.715C204.566,74.966,203.674,73.454,202.057,72.105z M169.245,55.724
		c0.195-1.258,0.435-2.488,0.714-3.657c0.284-1.192,0.597-2.397,0.937-3.618c0.316-1.13,0.679-2.395,1.092-3.792
		c0.877-0.638,1.981-1.31,3.288-2.001c1.429-0.755,2.935-1.33,4.474-1.709c1.484-0.365,2.941-0.445,4.336-0.238
		c1.146,0.17,2.121,0.698,2.971,1.611c-0.053,2.768-0.613,5.161-1.667,7.12c-1.118,2.076-2.613,3.801-4.443,5.126
		c-1.865,1.352-3.991,2.38-6.321,3.057c-1.92,0.558-3.859,0.911-5.783,1.053C168.971,57.598,169.106,56.609,169.245,55.724z"/>
	<path fill="#FFFFFF" d="M256.882,44.384c-0.146-1.869-0.398-3.766-0.745-5.615c-0.068-0.406-0.193-0.895-0.383-1.493l-0.516-1.637
		c-0.182-0.577-0.381-1.125-0.594-1.646c-0.228-0.55-0.435-0.98-0.641-1.323c-0.905-1.483-2.13-2.676-3.643-3.546
		c-1.45-0.833-3.07-1.442-4.819-1.809c-3.392-0.715-7.412-0.694-11.25-0.094c-1.731,0.3-3.393,0.738-4.939,1.303
		c-1.534,0.561-3.035,1.236-4.463,2.008c-1.406,0.763-2.752,1.562-3.999,2.374c-1.224,0.796-2.403,1.535-3.519,2.205
		c-0.357,0.204-0.762,0.399-1.204,0.581c-0.536,0.222-1.062,0.47-1.563,0.736c-0.573,0.303-1.09,0.666-1.536,1.077
		c-0.49,0.452-0.86,0.961-1.097,1.514l-0.059,0.175c-0.153,0.61-0.175,1.278-0.066,2.041c0.084,0.59,0.154,1.139,0.21,1.643
		c0.05,0.456,0.063,0.946,0.038,1.451c-0.036,0.688,0.02,1.326,0.149,1.834c0.062,0.315,0.156,0.692,0.281,1.127
		c0.122,0.427,0.258,0.855,0.411,1.278c0.156,0.437,0.312,0.828,0.466,1.164c0.265,0.586,0.628,0.974,1.081,1.153
		c0.521,0.234,1.14,0.212,1.87-0.08c0.46-0.184,0.933-0.397,1.421-0.641c0.477-0.238,0.954-0.491,1.431-0.76
		c0.438-0.247,0.799-0.454,1.085-0.624c1.919-0.847,3.656-1.595,5.213-2.245c1.537-0.643,3.316-1.283,5.325-1.916
		c0.93-0.329,1.92-0.64,2.939-0.924c1.093-0.303,2.11-0.674,3.012-1.095c0.72-0.327,1.372-0.728,1.938-1.194
		c0.219-0.18,0.471-0.304,0.764-0.373c0.101,0.096,0.183,0.213,0.252,0.357c0.187,0.4,0.331,0.859,0.428,1.362
		c0.104,0.542,0.169,1.124,0.196,1.728c0.018,0.42,0.031,0.81,0.037,1.171c-0.939,0.731-1.977,1.318-3.09,1.75
		c-1.464,0.568-2.902,1.279-4.244,2.096c-1.291,0.73-2.624,1.447-3.963,2.131c-1.368,0.698-2.741,1.467-4.068,2.274
		c-3.26,1.921-6.29,4.093-9.005,6.458c-2.738,2.386-5.17,5.175-7.238,8.308c-0.832,1.305-1.642,2.834-2.406,4.542
		c-0.805,1.793-1.245,3.68-1.308,5.612c-0.123,4.292,0.939,7.814,3.155,10.468c2.231,2.671,5.609,4.245,10.021,4.674
		c2.643,0.301,5.074,0.208,7.236-0.279c2.058-0.465,4.122-0.993,6.149-1.571c1.541-0.457,3.052-0.885,4.539-1.284
		c1.162-0.313,2.301-0.647,3.398-0.995c0.006,0.037,0.009,0.075,0.011,0.113c0.033,0.602,0.15,1.243,0.348,1.905l0.114,0.381
		l0.324,0.23c0.992,0.708,2.164,1.084,3.486,1.12c1.021,0.027,2.007,0.123,2.97,0.291c0.32,0.045,0.603,0.112,0.841,0.199
		c0.441,0.162,0.938,0.244,1.475,0.244h0.053l0.053-0.005c0.762-0.07,1.546-0.295,2.335-0.67c0.729-0.35,1.434-0.783,2.097-1.287
		c0.659-0.503,1.25-1.047,1.756-1.616c0.563-0.634,0.96-1.291,1.181-1.955l0.163-0.49l-0.256-0.448
		c-0.117-0.205-0.169-0.524-0.15-0.926c0.031-0.698-0.087-1.302-0.35-1.802c0.606-5.798,0.956-11.622,1.04-17.318
		c0.085-5.78,0.1-11.805,0.043-17.896C257.1,48.111,257.027,46.255,256.882,44.384z M239.679,68.191
		c-0.343,2.022-0.557,4.035-0.639,5.994c-1.707,0.904-3.633,1.81-5.734,2.697c-2.293,0.965-4.745,1.68-7.242,2.116
		c-0.774,0.101-1.474,0.13-2.077,0.08c-0.343-0.029-0.672-0.115-0.998-0.263c-0.084-1.058,0.078-2.02,0.491-2.928
		c0.529-1.165,1.171-2.209,1.916-3.113c1.792-2.227,4.143-4.16,6.986-5.746c2.462-1.374,5.015-2.663,7.609-3.844
		C240.053,64.911,239.949,66.59,239.679,68.191z"/>
	<path fill="#FFFFFF" d="M309.772,59.537c-1.767-1.521-3.916-2.751-6.389-3.656c-2.41-0.881-5.06-1.567-7.876-2.037
		c-2.731-0.455-5.54-0.877-8.352-1.255c-2.746-0.367-5.405-0.799-7.904-1.282c-2.142-0.413-4.063-1.015-5.721-1.793
		c-0.031-1.112-0.023-2.223,0.024-3.311c0.042-1.002,0.189-1.89,0.439-2.65c2.306-0.89,4.475-1.483,6.451-1.766
		c2.107-0.301,4.463-0.313,6.99-0.039c1.403,0.156,2.616,0.493,3.605,0.999c1.098,0.564,2.148,1.146,3.121,1.729
		c1.044,0.627,2.124,1.174,3.21,1.627c1.216,0.507,2.674,0.659,4.191,0.47c1.196-0.132,2.31-0.504,3.313-1.106
		c0.969-0.583,1.806-1.289,2.487-2.101c0.676-0.805,1.216-1.689,1.605-2.628c0.412-0.993,0.586-1.996,0.517-2.977
		c-0.076-1.123-0.613-2.27-1.645-3.508c-0.914-1.097-2.052-2.159-3.383-3.158c-1.314-0.986-2.725-1.85-4.192-2.569
		c-1.491-0.729-2.875-1.224-4.123-1.475c-3.967-0.769-7.974-0.844-11.903-0.222c-3.914,0.618-7.589,1.754-10.926,3.377
		c-3.336,1.625-6.302,3.648-8.816,6.014c-2.55,2.399-4.439,5.04-5.617,7.849c-1.2,2.863-1.559,5.831-1.066,8.822
		c0.499,3.018,2.115,5.912,4.804,8.6c1.183,1.183,2.887,2.054,5.065,2.589c2.02,0.498,4.26,0.885,6.656,1.148
		c2.382,0.261,4.867,0.466,7.384,0.608c2.473,0.141,4.791,0.396,6.89,0.76c2.038,0.354,3.806,0.887,5.254,1.582
		c1.252,0.603,2.011,1.411,2.32,2.468c0.442,1.527,0.402,2.864-0.124,4.086c-0.561,1.3-1.404,2.452-2.503,3.424
		c-1.128,0.996-2.448,1.796-3.922,2.376c-1.495,0.586-2.921,0.938-4.23,1.043c-2.163,0.16-4.181,0.014-6.009-0.443
		c-1.877-0.469-3.678-1.098-5.355-1.867c-1.718-0.79-3.363-1.605-4.89-2.423c-1.588-0.853-3.147-1.558-4.635-2.094l-0.816-0.295
		l-0.512,0.701c-0.435,0.596-0.882,1.138-1.328,1.611c-0.511,0.541-1.011,1.116-1.483,1.707c-0.495,0.616-0.951,1.292-1.356,2.008
		c-0.445,0.789-0.739,1.729-0.872,2.794l-0.062,0.495l0.317,0.385c1.7,2.064,4.01,3.859,6.868,5.333
		c2.8,1.444,5.924,2.552,9.287,3.291c3.336,0.73,6.848,1.131,10.44,1.189c0.247,0.004,0.493,0.006,0.738,0.006
		c3.348,0,6.59-0.375,9.635-1.115c3.288-0.8,6.313-2.035,8.99-3.67c2.749-1.681,4.888-3.9,6.378-6.633
		c0.417-0.841,0.881-1.917,1.378-3.201c0.507-1.314,0.93-2.732,1.258-4.219c0.328-1.498,0.54-3.052,0.628-4.62
		c0.093-1.636-0.05-3.191-0.423-4.625C312.893,63.261,311.612,61.123,309.772,59.537z"/>
	<path fill="#FFFFFF" d="M364.644,72.105l-0.273-0.227l-0.354-0.036c-1.943-0.193-3.881,0.195-5.766,1.154
		c-1.723,0.875-3.487,1.861-5.246,2.928c-1.697,1.029-3.501,1.944-5.359,2.722c-1.741,0.727-3.693,0.982-5.673,0.78
		c-0.948-0.106-1.938-0.334-2.941-0.677c-0.951-0.326-1.828-0.822-2.604-1.473c-0.787-0.659-1.47-1.473-2.033-2.419
		c-0.382-0.642-0.671-1.392-0.861-2.241c3.296-0.451,6.647-1.258,9.979-2.404c3.751-1.289,7.244-2.984,10.381-5.037
		c3.166-2.072,5.897-4.548,8.116-7.359c2.258-2.859,3.741-6.055,4.409-9.511c0.482-2.595,0.526-5.039,0.13-7.265
		c-0.398-2.227-1.114-4.215-2.129-5.907c-1.015-1.691-2.268-3.13-3.724-4.278c-1.459-1.148-3.053-1.983-4.725-2.479
		c-4.227-1.308-8.462-1.656-12.579-1.03c-4.097,0.623-7.965,2.023-11.498,4.161c-3.516,2.127-6.675,4.896-9.388,8.23
		c-2.711,3.331-4.848,7.11-6.35,11.235c-1.503,4.125-2.295,8.558-2.354,13.176c-0.058,4.644,0.869,9.389,2.753,14.102l0.079,0.196
		l0.143,0.156c1.265,1.38,2.774,3.018,4.528,4.915c1.798,1.947,3.922,3.772,6.309,5.423c2.414,1.667,5.172,2.995,8.196,3.944
		c1.906,0.598,3.975,0.901,6.147,0.901c1.344,0,2.759-0.116,4.193-0.343c1.629-0.243,3.441-0.759,5.386-1.536
		c1.917-0.768,3.821-1.69,5.658-2.74c1.861-1.063,3.589-2.281,5.138-3.62c1.576-1.364,2.827-2.787,3.718-4.232
		c0.963-1.562,1.381-3.148,1.244-4.715C367.153,74.966,366.261,73.453,364.644,72.105z M331.832,55.724
		c0.193-1.252,0.434-2.482,0.714-3.657c0.284-1.192,0.596-2.397,0.937-3.618c0.317-1.13,0.68-2.395,1.093-3.792
		c0.878-0.639,1.982-1.31,3.287-2.001c1.43-0.755,2.935-1.33,4.475-1.709c1.483-0.365,2.941-0.445,4.336-0.238
		c1.146,0.17,2.121,0.698,2.97,1.611c-0.052,2.768-0.612,5.162-1.665,7.12c-1.12,2.077-2.614,3.801-4.443,5.126
		c-1.864,1.351-3.991,2.379-6.321,3.057c-1.92,0.558-3.859,0.911-5.783,1.053C331.558,57.599,331.692,56.611,331.832,55.724z"/>
	<polygon fill="#FFFFFF" points="379.964,10.732 388.198,10.732 388.198,82.968 379.964,82.968 379.964,90.703 405.04,90.703 
		405.04,82.968 396.681,82.968 396.681,10.732 405.04,10.732 405.04,2.998 379.964,2.998 	"/>
	<path fill="#FFFFFF" d="M504.849,46.289c0-25.201-19.712-44.789-44.914-44.789c-24.827,0-44.415,19.588-44.415,44.789
		c0,25.575,19.588,45.912,44.415,45.912c10.979,0,20.835-3.618,28.57-10.231l10.729,10.854l5.365-5.614l-10.729-10.73
		C500.607,68.496,504.849,57.767,504.849,46.289z M487.632,70.492l-10.355-10.729l-5.365,5.614l10.48,10.605
		c0,0-8.608,7.985-22.456,7.985c-19.837,0-35.307-16.593-35.307-37.677c0-20.71,15.47-36.43,35.307-36.43
		c20.211,0,35.806,15.72,35.806,36.43C495.741,55.396,492.622,64.13,487.632,70.492z"/>
</g>
</svg>
