<?xml version="1.0" encoding="UTF-8" standalone="no"?>
<svg width="39px" height="40px" viewBox="0 0 39 40" version="1.1" xmlns="http://www.w3.org/2000/svg" xmlns:xlink="http://www.w3.org/1999/xlink" xmlns:sketch="http://www.bohemiancoding.com/sketch/ns">
    <!-- Generator: Sketch 3.3.3 (12081) - http://www.bohemiancoding.com/sketch -->
    <title>logo-mini</title>
    <desc>Created with Sketch.</desc>
    <defs></defs>
    <g id="Index" stroke="none" stroke-width="1" fill="none" fill-rule="evenodd" sketch:type="MSPage">
        <g id="Backlog---1024---normal" sketch:type="MSArtboardGroup" transform="translate(-52.000000, -9.000000)">
            <g id="Header" sketch:type="MSLayerGroup" transform="translate(1.000000, 9.000000)">
                <g id="logo-mini" transform="translate(51.000000, 0.000000)" sketch:type="MSShapeGroup">
                    <path d="M23.6874667,14.033 C23.4442667,14.011 23.2170667,14 23.0048,14 C21.296,14 20.4778667,14.692 19.5402667,15.74 C18.6026667,14.692 17.7834667,14 16.0778667,14 C15.8624,14 15.6352,14.011 15.3941333,14.033 C13.9146667,14.168 12.2069333,15.437 12,17.867 L12,18.676 C12.1941333,21.002 14.0672,23.871 19.5402667,27.471 C25.0144,23.871 26.8874667,21.002 27.0816,18.676 L27.0816,17.867 C26.8736,15.437 25.1648,14.168 23.6874667,14.033" id="Heart" fill="#FF6868"></path>
                    <path d="M0.052,19.776 C0.052,30.846 8.53,39.648 19.276,39.648 C24.028,39.648 28.294,38.082 31.642,35.22 L36.286,39.918 L38.608,37.488 L33.964,32.844 C36.88,29.388 38.716,24.744 38.716,19.776 C38.716,8.868 30.184,0.39 19.276,0.39 C8.53,0.39 0.052,8.868 0.052,19.776 L0.052,19.776 Z M3.994,19.776 C3.994,10.812 10.69,4.008 19.276,4.008 C28.024,4.008 34.774,10.812 34.774,19.776 C34.774,23.718 33.424,27.498 31.264,30.252 L26.782,25.608 L24.46,28.038 L28.996,32.628 C28.996,32.628 25.27,36.084 19.276,36.084 C10.69,36.084 3.994,28.902 3.994,19.776 L3.994,19.776 Z" id="Q" fill="#009CFF"></path>
                </g>
            </g>
        </g>
    </g>
</svg>